<?xml version="1.0" encoding="utf-8"?>
<!-- Generator: Adobe Illustrator 27.5.0, SVG Export Plug-In . SVG Version: 6.00 Build 0)  -->
<svg version="1.1" xmlns="http://www.w3.org/2000/svg" xmlns:xlink="http://www.w3.org/1999/xlink" x="0px" y="0px"
	 viewBox="0 0 500 500" style="enable-background:new 0 0 500 500;" xml:space="preserve">
<g id="Background_Complete">
	<g>
		<rect y="382.398" style="fill:#EBEBEB;" width="500" height="0.25"/>
		<rect x="64.667" y="391.922" style="fill:#EBEBEB;" width="20.914" height="0.25"/>
		<rect x="171.14" y="389.208" style="fill:#EBEBEB;" width="24.193" height="0.25"/>
		<rect x="118.808" y="395.181" style="fill:#EBEBEB;" width="19.192" height="0.25"/>
		<rect x="422" y="399.528" style="fill:#EBEBEB;" width="27.901" height="0.25"/>
		<rect x="387.708" y="392.172" style="fill:#EBEBEB;" width="21.625" height="0.25"/>
		<rect x="277.213" y="395.306" style="fill:#EBEBEB;" width="48.454" height="0.25"/>
		<path style="fill:#EBEBEB;" d="M237.014,337.8H43.915c-3.147,0-5.708-2.561-5.708-5.708V60.66c0-3.147,2.561-5.708,5.708-5.708
			h193.099c3.146,0,5.707,2.561,5.707,5.708v271.432C242.721,335.239,240.16,337.8,237.014,337.8z M43.915,55.203
			c-3.01,0-5.458,2.448-5.458,5.458v271.432c0,3.01,2.448,5.458,5.458,5.458h193.099c3.009,0,5.457-2.448,5.457-5.458V60.66
			c0-3.009-2.448-5.458-5.457-5.458H43.915z"/>
		<path style="fill:#EBEBEB;" d="M453.31,337.8H260.212c-3.147,0-5.707-2.561-5.707-5.708V60.66c0-3.147,2.561-5.708,5.707-5.708
			H453.31c3.148,0,5.708,2.561,5.708,5.708v271.432C459.019,335.239,456.458,337.8,453.31,337.8z M260.212,55.203
			c-3.009,0-5.457,2.448-5.457,5.458v271.432c0,3.01,2.448,5.458,5.457,5.458H453.31c3.01,0,5.458-2.448,5.458-5.458V60.66
			c0-3.009-2.448-5.458-5.458-5.458H260.212z"/>
	</g>
	<g>
		<path style="fill:#EBEBEB;" d="M41.686,382.398h-6.34c21.59-49.96,21.68-106.6,0.26-156.61h6.33
			C62.696,275.929,62.606,332.309,41.686,382.398z"/>
		<path style="fill:#EBEBEB;" d="M87.186,382.398h-6.34c21.59-49.96,21.68-106.6,0.26-156.61h6.33
			C108.196,275.929,108.106,332.309,87.186,382.398z"/>
		<path style="fill:#F5F5F5;" d="M124.291,310.3c0.78,24.55,6,48.99,15.65,72.1h6.34c-9.96-23.05-15.35-47.52-16.15-72.1H124.291z"
			/>
		<path style="fill:#F5F5F5;" d="M78.791,310.3c0.78,24.55,6,48.99,15.65,72.1h6.34c-9.96-23.05-15.35-47.52-16.15-72.1H78.791z"/>
		<path style="fill:#E0E0E0;" d="M126.455,316.5H60.926c-3.412,0-6.203-2.792-6.203-6.203l0,0c0-3.412,2.792-6.203,6.203-6.203
			h65.528c3.412,0,6.203,2.791,6.203,6.203l0,0C132.658,313.708,129.866,316.5,126.455,316.5z"/>
		<path style="fill:#E0E0E0;" d="M100.976,279.167H68.643c-6.6,0-13.629-5.4-15.621-12l-11.264-37.333c-1.991-6.6,1.779-12,8.379-12
			H82.47c6.6,0,13.629,5.4,15.621,12l11.264,37.333C111.346,273.767,107.576,279.167,100.976,279.167z"/>
	</g>
	<g>
		<path style="fill:#EBEBEB;" d="M448.676,382.398h6.34c-21.59-49.96-21.68-106.6-0.26-156.61h-6.33
			C427.666,275.929,427.756,332.309,448.676,382.398z"/>
		<path style="fill:#EBEBEB;" d="M403.176,382.398h6.34c-21.59-49.96-21.68-106.6-0.26-156.61h-6.33
			C382.166,275.929,382.256,332.309,403.176,382.398z"/>
		<path style="fill:#F5F5F5;" d="M366.071,310.3c-0.78,24.55-6,48.99-15.65,72.1h-6.34c9.96-23.05,15.35-47.52,16.15-72.1H366.071z"
			/>
		<path style="fill:#F5F5F5;" d="M411.571,310.3c-0.78,24.55-6,48.99-15.65,72.1h-6.34c9.96-23.05,15.35-47.52,16.15-72.1H411.571z"
			/>
		<path style="fill:#E0E0E0;" d="M363.908,316.5h65.529c3.412,0,6.203-2.792,6.203-6.203l0,0c0-3.412-2.791-6.203-6.203-6.203
			h-65.529c-3.412,0-6.203,2.791-6.203,6.203l0,0C357.704,313.708,360.496,316.5,363.908,316.5z"/>
		<path style="fill:#E0E0E0;" d="M389.386,279.167h32.333c6.6,0,13.629-5.4,15.621-12l11.264-37.333c1.991-6.6-1.779-12-8.379-12
			h-32.333c-6.6,0-13.629,5.4-15.621,12l-11.264,37.333C379.016,273.767,382.786,279.167,389.386,279.167z"/>
	</g>
	<g>
		<polygon style="fill:#F5F5F5;" points="162.776,260.19 150.783,260.19 150.783,382.398 157.569,382.398 		"/>
		<polygon style="fill:#F5F5F5;" points="323.677,260.19 335.671,260.19 335.671,382.398 328.885,382.398 		"/>
		<g>
			<g>
				<rect x="141.314" y="253.877" style="fill:#E0E0E0;" width="22.675" height="120.569"/>
				<rect x="163.989" y="253.877" style="fill:#EBEBEB;" width="13.556" height="112.678"/>
				<rect x="177.544" y="253.877" style="fill:#E0E0E0;" width="22.675" height="120.569"/>
				<rect x="200.219" y="253.877" style="fill:#EBEBEB;" width="13.556" height="112.678"/>
				<rect x="213.774" y="253.877" style="fill:#E0E0E0;" width="22.675" height="120.569"/>
				<rect x="236.449" y="253.877" style="fill:#EBEBEB;" width="13.556" height="112.678"/>
				<rect x="250.005" y="253.877" style="fill:#E0E0E0;" width="22.675" height="120.569"/>
				<rect x="272.679" y="253.877" style="fill:#EBEBEB;" width="13.556" height="112.678"/>
				<rect x="286.235" y="253.877" style="fill:#E0E0E0;" width="22.675" height="120.569"/>
				<rect x="308.909" y="253.877" style="fill:#EBEBEB;" width="13.556" height="112.678"/>
				<rect x="322.465" y="253.877" style="fill:#E0E0E0;" width="22.675" height="120.569"/>
			</g>
			<path style="fill:#F5F5F5;" d="M244.221,334.566l103.36-79.355c1.24-0.952,0.567-2.935-0.997-2.935h-206.72
				c-1.564,0-2.237,1.983-0.997,2.935l103.36,79.355C242.816,335.018,243.633,335.018,244.221,334.566z"/>
		</g>
	</g>
	<g>
		<rect x="79.631" y="71" style="fill:#F0F0F0;" width="340.738" height="121.642"/>
		<g>
			<path style="fill:#F0F0F0;" d="M420.37,197.64c-0.33,0-0.66-0.03-0.98-0.1c-0.32-0.06-0.63-0.16-0.93-0.28
				c-0.3-0.13-0.601-0.28-0.87-0.46c-0.271-0.18-0.53-0.39-0.76-0.62c-0.23-0.23-0.441-0.49-0.62-0.76
				c-0.181-0.27-0.33-0.56-0.46-0.86c-0.12-0.31-0.221-0.62-0.28-0.94c-0.07-0.32-0.1-0.65-0.1-0.98c0-0.32,0.029-0.65,0.1-0.98
				c0.06-0.31,0.16-0.63,0.28-0.93c0.13-0.3,0.279-0.59,0.46-0.86c0.18-0.28,0.39-0.53,0.62-0.76c0.229-0.23,0.489-0.44,0.76-0.62
				c0.27-0.18,0.57-0.34,0.87-0.46c0.3-0.13,0.609-0.22,0.93-0.29c0.65-0.13,1.31-0.13,1.96,0c0.32,0.07,0.63,0.16,0.93,0.29
				c0.301,0.12,0.591,0.28,0.87,0.46c0.27,0.18,0.53,0.39,0.761,0.62c0.229,0.23,0.439,0.48,0.619,0.76
				c0.181,0.27,0.33,0.56,0.46,0.86c0.12,0.3,0.221,0.62,0.28,0.93c0.07,0.33,0.101,0.66,0.101,0.98c0,0.33-0.03,0.66-0.101,0.98
				c-0.06,0.32-0.16,0.63-0.28,0.94c-0.13,0.3-0.279,0.59-0.46,0.86c-0.18,0.27-0.39,0.53-0.619,0.76
				c-0.23,0.23-0.49,0.44-0.761,0.62c-0.279,0.18-0.569,0.33-0.87,0.46c-0.3,0.12-0.609,0.22-0.93,0.28
				C421.02,197.61,420.699,197.64,420.37,197.64z"/>
			<path style="fill:#F0F0F0;" d="M405.35,192.64c0-2.76,2.24-5,5-5l0,0c2.76,0,5,2.24,5,5l0,0c0,2.76-2.24,5-5,5l0,0
				C407.59,197.64,405.35,195.4,405.35,192.64z M395.33,192.64c0-2.76,2.229-5,5-5l0,0c2.76,0,5,2.24,5,5l0,0c0,2.76-2.24,5-5,5l0,0
				C397.56,197.64,395.33,195.4,395.33,192.64z M385.3,192.64c0-2.76,2.24-5,5-5l0,0c2.77,0,5,2.24,5,5l0,0c0,2.76-2.23,5-5,5l0,0
				C387.54,197.64,385.3,195.4,385.3,192.64z M375.279,192.64c0-2.76,2.24-5,5-5l0,0c2.761,0,5,2.24,5,5l0,0c0,2.76-2.239,5-5,5l0,0
				C377.52,197.64,375.279,195.4,375.279,192.64z M365.26,192.64c0-2.76,2.24-5,5-5l0,0c2.76,0,5,2.24,5,5l0,0c0,2.76-2.24,5-5,5
				l0,0C367.5,197.64,365.26,195.4,365.26,192.64z M355.239,192.64c0-2.76,2.24-5,5-5l0,0c2.761,0,5,2.24,5,5l0,0
				c0,2.76-2.239,5-5,5l0,0C357.479,197.64,355.239,195.4,355.239,192.64z M345.22,192.64c0-2.76,2.24-5,5-5l0,0c2.76,0,5,2.24,5,5
				l0,0c0,2.76-2.24,5-5,5l0,0C347.46,197.64,345.22,195.4,345.22,192.64z M335.199,192.64c0-2.76,2.23-5,5-5l0,0
				c2.761,0,5,2.24,5,5l0,0c0,2.76-2.239,5-5,5l0,0C337.43,197.64,335.199,195.4,335.199,192.64z M325.18,192.64
				c0-2.76,2.23-5,4.99-5l0,0c2.76,0,5.01,2.24,5.01,5l0,0c0,2.76-2.25,5-5.01,5l0,0C327.41,197.64,325.18,195.4,325.18,192.64z
				 M315.149,192.64c0-2.76,2.24-5,5-5l0,0c2.761,0,5,2.24,5,5l0,0c0,2.76-2.239,5-5,5l0,0
				C317.39,197.64,315.149,195.4,315.149,192.64z M305.13,192.64c0-2.76,2.24-5,5-5l0,0c2.76,0,5,2.24,5,5l0,0c0,2.76-2.24,5-5,5
				l0,0C307.37,197.64,305.13,195.4,305.13,192.64z M295.109,192.64c0-2.76,2.24-5,5-5l0,0c2.761,0,5,2.24,5,5l0,0
				c0,2.76-2.239,5-5,5l0,0C297.35,197.64,295.109,195.4,295.109,192.64z M285.09,192.64c0-2.76,2.24-5,5-5l0,0c2.76,0,5,2.24,5,5
				l0,0c0,2.76-2.24,5-5,5l0,0C287.33,197.64,285.09,195.4,285.09,192.64z M275.06,192.64c0-2.76,2.24-5,5.01-5l0,0
				c2.761,0,4.99,2.24,4.99,5l0,0c0,2.76-2.229,5-4.99,5l0,0C277.3,197.64,275.06,195.4,275.06,192.64z M265.04,192.64
				c0-2.76,2.239-5,5-5l0,0c2.77,0,5,2.24,5,5l0,0c0,2.76-2.23,5-5,5l0,0C267.279,197.64,265.04,195.4,265.04,192.64z
				 M255.02,192.64c0-2.76,2.24-5,5-5l0,0c2.76,0,5,2.24,5,5l0,0c0,2.76-2.24,5-5,5l0,0C257.26,197.64,255.02,195.4,255.02,192.64z
				 M245,192.64c0-2.76,2.239-5,5-5l0,0c2.76,0,5,2.24,5,5l0,0c0,2.76-2.24,5-5,5l0,0C247.239,197.64,245,195.4,245,192.64z
				 M234.98,192.64c0-2.76,2.24-5,5-5l0,0c2.76,0,5,2.24,5,5l0,0c0,2.76-2.24,5-5,5l0,0C237.22,197.64,234.98,195.4,234.98,192.64z
				 M224.96,192.64c0-2.76,2.229-5,5-5l0,0c2.76,0,5,2.24,5,5l0,0c0,2.76-2.24,5-5,5l0,0C227.189,197.64,224.96,195.4,224.96,192.64
				z M214.939,192.64c0-2.76,2.23-5,4.99-5l0,0c2.77,0,5.01,2.24,5.01,5l0,0c0,2.76-2.24,5-5.01,5l0,0
				C217.17,197.64,214.939,195.4,214.939,192.64z M204.91,192.64c0-2.76,2.239-5,5-5l0,0c2.76,0,5,2.24,5,5l0,0c0,2.76-2.24,5-5,5
				l0,0C207.149,197.64,204.91,195.4,204.91,192.64z M194.89,192.64c0-2.76,2.24-5,5-5l0,0c2.76,0,5,2.24,5,5l0,0c0,2.76-2.24,5-5,5
				l0,0C197.13,197.64,194.89,195.4,194.89,192.64z M184.87,192.64c0-2.76,2.239-5,5-5l0,0c2.76,0,5,2.24,5,5l0,0c0,2.76-2.24,5-5,5
				l0,0C187.109,197.64,184.87,195.4,184.87,192.64z M174.85,192.64c0-2.76,2.24-5,5-5l0,0c2.76,0,5,2.24,5,5l0,0c0,2.76-2.24,5-5,5
				l0,0C177.09,197.64,174.85,195.4,174.85,192.64z M164.83,192.64c0-2.76,2.239-5,5-5l0,0c2.76,0,5,2.24,5,5l0,0c0,2.76-2.24,5-5,5
				l0,0C167.069,197.64,164.83,195.4,164.83,192.64z M154.81,192.64c0-2.76,2.23-5,4.99-5l0,0c2.77,0,5.01,2.24,5.01,5l0,0
				c0,2.76-2.24,5-5.01,5l0,0C157.04,197.64,154.81,195.4,154.81,192.64z M144.779,192.64c0-2.76,2.24-5,5-5l0,0c2.761,0,5,2.24,5,5
				l0,0c0,2.76-2.239,5-5,5l0,0C147.02,197.64,144.779,195.4,144.779,192.64z M134.76,192.64c0-2.76,2.24-5,5-5l0,0
				c2.76,0,5,2.24,5,5l0,0c0,2.76-2.24,5-5,5l0,0C137,197.64,134.76,195.4,134.76,192.64z M124.739,192.64c0-2.76,2.24-5,5-5l0,0
				c2.761,0,5,2.24,5,5l0,0c0,2.76-2.239,5-5,5l0,0C126.979,197.64,124.739,195.4,124.739,192.64z M114.72,192.64c0-2.76,2.24-5,5-5
				l0,0c2.76,0,5,2.24,5,5l0,0c0,2.76-2.24,5-5,5l0,0C116.96,197.64,114.72,195.4,114.72,192.64z M104.699,192.64c0-2.76,2.23-5,5-5
				l0,0c2.761,0,5,2.24,5,5l0,0c0,2.76-2.239,5-5,5l0,0C106.93,197.64,104.699,195.4,104.699,192.64z M94.67,192.64
				c0-2.76,2.24-5,5.01-5l0,0c2.76,0,4.99,2.24,4.99,5l0,0c0,2.76-2.23,5-4.99,5l0,0C96.91,197.64,94.67,195.4,94.67,192.64z
				 M84.649,192.64c0-2.76,2.24-5,5-5l0,0c2.761,0,5,2.24,5,5l0,0c0,2.76-2.239,5-5,5l0,0C86.89,197.64,84.649,195.4,84.649,192.64z
				"/>
			<path style="fill:#F0F0F0;" d="M79.63,197.64c-0.33,0-0.65-0.03-0.98-0.1c-0.319-0.06-0.63-0.16-0.93-0.28
				c-0.3-0.13-0.59-0.28-0.87-0.46c-0.27-0.18-0.53-0.39-0.76-0.62c-0.93-0.93-1.46-2.22-1.46-3.54c0-1.31,0.53-2.6,1.46-3.53
				c0.229-0.23,0.49-0.44,0.76-0.62c0.28-0.18,0.57-0.34,0.87-0.46c0.3-0.13,0.61-0.23,0.93-0.29c1.63-0.33,3.351,0.21,4.521,1.37
				c0.93,0.93,1.46,2.22,1.46,3.53c0,1.32-0.53,2.61-1.46,3.54C82.239,197.11,80.949,197.64,79.63,197.64z"/>
			<path style="fill:#F0F0F0;" d="M74.63,182.51c0-2.77,2.24-5.01,5-5.01l0,0c2.76,0,5,2.24,5,5.01l0,0c0,2.76-2.24,5-5,5l0,0
				C76.87,187.51,74.63,185.27,74.63,182.51z M74.63,172.37c0-2.76,2.24-5,5-5l0,0c2.76,0,5,2.24,5,5l0,0c0,2.76-2.24,5-5,5l0,0
				C76.87,177.37,74.63,175.13,74.63,172.37z M74.63,162.23c0-2.76,2.24-5,5-5l0,0c2.76,0,5,2.24,5,5l0,0c0,2.76-2.24,5-5,5l0,0
				C76.87,167.23,74.63,164.99,74.63,162.23z M74.63,152.09c0-2.76,2.24-5,5-5l0,0c2.76,0,5,2.24,5,5l0,0c0,2.77-2.24,5.01-5,5.01
				l0,0C76.87,157.1,74.63,154.86,74.63,152.09z M74.63,141.96c0-2.76,2.24-5,5-5l0,0c2.76,0,5,2.24,5,5l0,0c0,2.76-2.24,5-5,5l0,0
				C76.87,146.96,74.63,144.72,74.63,141.96z M74.63,131.82c0-2.76,2.24-5,5-5l0,0c2.76,0,5,2.24,5,5l0,0c0,2.76-2.24,5-5,5l0,0
				C76.87,136.82,74.63,134.58,74.63,131.82z M74.63,121.68c0-2.76,2.24-5,5-5l0,0c2.76,0,5,2.24,5,5l0,0c0,2.77-2.24,5.01-5,5.01
				l0,0C76.87,126.69,74.63,124.45,74.63,121.68z M74.63,111.55c0-2.77,2.24-5,5-5l0,0c2.76,0,5,2.23,5,5l0,0c0,2.76-2.24,5-5,5l0,0
				C76.87,116.55,74.63,114.31,74.63,111.55z M74.63,101.41c0-2.76,2.24-5,5-5l0,0c2.76,0,5,2.24,5,5l0,0c0,2.76-2.24,5-5,5l0,0
				C76.87,106.41,74.63,104.17,74.63,101.41z M74.63,91.27c0-2.76,2.24-5,5-5l0,0c2.76,0,5,2.24,5,5l0,0c0,2.77-2.24,5-5,5l0,0
				C76.87,96.27,74.63,94.04,74.63,91.27z M74.63,81.14c0-2.77,2.24-5,5-5l0,0c2.76,0,5,2.23,5,5l0,0c0,2.76-2.24,5-5,5l0,0
				C76.87,86.14,74.63,83.9,74.63,81.14z"/>
			<path style="fill:#F0F0F0;" d="M79.63,76c-0.33,0-0.65-0.03-0.98-0.1c-0.319-0.06-0.63-0.16-0.93-0.28
				c-0.3-0.13-0.59-0.28-0.87-0.46c-0.27-0.19-0.53-0.39-0.76-0.63c-0.23-0.23-0.44-0.48-0.62-0.76c-0.18-0.27-0.33-0.56-0.46-0.86
				c-0.12-0.3-0.22-0.61-0.28-0.93c-0.069-0.32-0.1-0.65-0.1-0.98c0-1.32,0.53-2.6,1.46-3.54c0.229-0.23,0.49-0.43,0.76-0.62
				c0.28-0.18,0.57-0.33,0.87-0.46c0.3-0.12,0.61-0.22,0.93-0.28c1.63-0.33,3.351,0.2,4.521,1.36c0.93,0.94,1.46,2.22,1.46,3.54
				c0,0.33-0.03,0.66-0.101,0.98c-0.06,0.32-0.159,0.63-0.279,0.93c-0.13,0.3-0.28,0.59-0.46,0.86c-0.181,0.28-0.391,0.53-0.62,0.76
				C82.239,75.47,80.949,76,79.63,76z"/>
			<path style="fill:#F0F0F0;" d="M405.35,71c0-2.76,2.24-5,5-5l0,0c2.76,0,5,2.24,5,5l0,0c0,2.76-2.24,5-5,5l0,0
				C407.59,76,405.35,73.76,405.35,71z M395.319,71c0-2.76,2.24-5,5.011-5l0,0c2.76,0,4.989,2.24,4.989,5l0,0
				c0,2.76-2.229,5-4.989,5l0,0C397.56,76,395.319,73.76,395.319,71z M385.3,71c0-2.76,2.24-5,5-5l0,0c2.76,0,5,2.24,5,5l0,0
				c0,2.76-2.24,5-5,5l0,0C387.54,76,385.3,73.76,385.3,71z M375.279,71c0-2.76,2.24-5,5-5l0,0c2.761,0,5,2.24,5,5l0,0
				c0,2.76-2.239,5-5,5l0,0C377.52,76,375.279,73.76,375.279,71z M365.26,71c0-2.76,2.24-5,5-5l0,0c2.76,0,5,2.24,5,5l0,0
				c0,2.76-2.24,5-5,5l0,0C367.5,76,365.26,73.76,365.26,71z M355.239,71c0-2.76,2.24-5,5-5l0,0c2.761,0,5,2.24,5,5l0,0
				c0,2.76-2.239,5-5,5l0,0C357.479,76,355.239,73.76,355.239,71z M345.22,71c0-2.76,2.229-5,5-5l0,0c2.76,0,5,2.24,5,5l0,0
				c0,2.76-2.24,5-5,5l0,0C347.449,76,345.22,73.76,345.22,71z M335.199,71c0-2.76,2.23-5,4.99-5l0,0c2.77,0,5.01,2.24,5.01,5l0,0
				c0,2.76-2.239,5-5.01,5l0,0C337.43,76,335.199,73.76,335.199,71z M325.17,71c0-2.76,2.24-5,5-5l0,0c2.76,0,5,2.24,5,5l0,0
				c0,2.76-2.24,5-5,5l0,0C327.41,76,325.17,73.76,325.17,71z M315.149,71c0-2.76,2.24-5,5-5l0,0c2.761,0,5,2.24,5,5l0,0
				c0,2.76-2.239,5-5,5l0,0C317.39,76,315.149,73.76,315.149,71z M305.13,71c0-2.76,2.24-5,5-5l0,0c2.76,0,5,2.24,5,5l0,0
				c0,2.76-2.24,5-5,5l0,0C307.37,76,305.13,73.76,305.13,71z M295.109,71c0-2.76,2.24-5,5-5l0,0c2.761,0,5,2.24,5,5l0,0
				c0,2.76-2.239,5-5,5l0,0C297.35,76,295.109,73.76,295.109,71z M285.09,71c0-2.76,2.24-5,5-5l0,0c2.76,0,5,2.24,5,5l0,0
				c0,2.76-2.24,5-5,5l0,0C287.33,76,285.09,73.76,285.09,71z M275.069,71c0-2.76,2.23-5,4.99-5l0,0c2.76,0,5.01,2.24,5.01,5l0,0
				c0,2.76-2.25,5-5.01,5l0,0C277.3,76,275.069,73.76,275.069,71z M265.04,71c0-2.76,2.239-5,5-5l0,0c2.76,0,5,2.24,5,5l0,0
				c0,2.76-2.24,5-5,5l0,0C267.279,76,265.04,73.76,265.04,71z M255.02,71c0-2.76,2.24-5,5-5l0,0c2.76,0,5,2.24,5,5l0,0
				c0,2.76-2.24,5-5,5l0,0C257.26,76,255.02,73.76,255.02,71z M245,71c0-2.76,2.239-5,5-5l0,0c2.76,0,5,2.24,5,5l0,0
				c0,2.76-2.24,5-5,5l0,0C247.239,76,245,73.76,245,71z M234.98,71c0-2.76,2.24-5,5-5l0,0c2.76,0,5,2.24,5,5l0,0c0,2.76-2.24,5-5,5
				l0,0C237.22,76,234.98,73.76,234.98,71z M224.96,71c0-2.76,2.229-5,5-5l0,0c2.76,0,5,2.24,5,5l0,0c0,2.76-2.24,5-5,5l0,0
				C227.189,76,224.96,73.76,224.96,71z M214.93,71c0-2.76,2.24-5,5.01-5l0,0c2.76,0,4.99,2.24,4.99,5l0,0c0,2.76-2.23,5-4.99,5l0,0
				C217.17,76,214.93,73.76,214.93,71z M204.91,71c0-2.76,2.239-5,5-5l0,0c2.76,0,5,2.24,5,5l0,0c0,2.76-2.24,5-5,5l0,0
				C207.149,76,204.91,73.76,204.91,71z M194.89,71c0-2.76,2.24-5,5-5l0,0c2.76,0,5,2.24,5,5l0,0c0,2.76-2.24,5-5,5l0,0
				C197.13,76,194.89,73.76,194.89,71z M184.87,71c0-2.76,2.239-5,5-5l0,0c2.76,0,5,2.24,5,5l0,0c0,2.76-2.24,5-5,5l0,0
				C187.109,76,184.87,73.76,184.87,71z M174.85,71c0-2.76,2.23-5,5-5l0,0c2.76,0,5,2.24,5,5l0,0c0,2.76-2.24,5-5,5l0,0
				C177.08,76,174.85,73.76,174.85,71z M164.83,71c0-2.76,2.23-5,4.989-5l0,0c2.77,0,5.011,2.24,5.011,5l0,0c0,2.76-2.24,5-5.011,5
				l0,0C167.06,76,164.83,73.76,164.83,71z M154.81,71c0-2.76,2.23-5,4.99-5l0,0c2.76,0,5,2.24,5,5l0,0c0,2.76-2.24,5-5,5l0,0
				C157.04,76,154.81,73.76,154.81,71z M144.779,71c0-2.76,2.24-5,5-5l0,0c2.761,0,5,2.24,5,5l0,0c0,2.76-2.239,5-5,5l0,0
				C147.02,76,144.779,73.76,144.779,71z M134.76,71c0-2.76,2.24-5,5-5l0,0c2.76,0,5,2.24,5,5l0,0c0,2.76-2.24,5-5,5l0,0
				C137,76,134.76,73.76,134.76,71z M124.739,71c0-2.76,2.24-5,5-5l0,0c2.761,0,5,2.24,5,5l0,0c0,2.76-2.239,5-5,5l0,0
				C126.979,76,124.739,73.76,124.739,71z M114.72,71c0-2.76,2.24-5,5-5l0,0c2.76,0,5,2.24,5,5l0,0c0,2.76-2.24,5-5,5l0,0
				C116.96,76,114.72,73.76,114.72,71z M104.699,71c0-2.76,2.24-5,5-5l0,0c2.761,0,5,2.24,5,5l0,0c0,2.76-2.239,5-5,5l0,0
				C106.939,76,104.699,73.76,104.699,71z M94.67,71c0-2.76,2.24-5,5-5l0,0c2.76,0,5,2.24,5,5l0,0c0,2.76-2.24,5-5,5l0,0
				C96.91,76,94.67,73.76,94.67,71z M84.649,71c0-2.76,2.24-5,5-5l0,0c2.761,0,5,2.24,5,5l0,0c0,2.76-2.239,5-5,5l0,0
				C86.89,76,84.649,73.76,84.649,71z"/>
			<path style="fill:#F0F0F0;" d="M420.37,76c-0.33,0-0.66-0.03-0.98-0.1c-0.32-0.06-0.63-0.16-0.93-0.28
				c-0.3-0.13-0.601-0.28-0.87-0.46c-0.271-0.18-0.53-0.39-0.76-0.62c-0.23-0.23-0.441-0.49-0.62-0.76
				c-0.181-0.27-0.33-0.57-0.46-0.87c-0.12-0.3-0.221-0.61-0.28-0.93c-0.07-0.32-0.1-0.65-0.1-0.98c0-0.32,0.029-0.65,0.1-0.98
				c0.06-0.32,0.16-0.63,0.28-0.93c0.13-0.3,0.279-0.59,0.46-0.87c0.18-0.27,0.39-0.53,0.62-0.76c0.229-0.23,0.489-0.44,0.76-0.62
				c0.27-0.18,0.57-0.33,0.87-0.46c0.3-0.12,0.609-0.22,0.93-0.28c0.65-0.13,1.31-0.13,1.96,0c0.32,0.06,0.63,0.16,0.93,0.28
				c0.301,0.13,0.591,0.28,0.87,0.46c0.27,0.18,0.53,0.39,0.761,0.62c0.229,0.23,0.43,0.49,0.619,0.76
				c0.181,0.27,0.33,0.57,0.46,0.87c0.12,0.3,0.221,0.61,0.28,0.93c0.07,0.33,0.101,0.66,0.101,0.98c0,0.33-0.03,0.66-0.101,0.98
				c-0.06,0.32-0.16,0.63-0.28,0.93c-0.13,0.3-0.279,0.6-0.46,0.87c-0.189,0.27-0.39,0.53-0.619,0.76
				c-0.23,0.23-0.49,0.44-0.761,0.62c-0.279,0.18-0.569,0.33-0.87,0.46c-0.3,0.12-0.609,0.22-0.93,0.28
				C421.029,75.97,420.699,76,420.37,76z"/>
			<path style="fill:#F0F0F0;" d="M415.37,182.51c0-2.77,2.239-5.01,5-5.01l0,0c2.76,0,5,2.24,5,5.01l0,0c0,2.76-2.24,4.99-5,4.99
				l0,0C417.609,187.5,415.37,185.27,415.37,182.51z M415.37,172.37c0-2.76,2.239-5,5-5l0,0c2.76,0,5,2.24,5,5l0,0
				c0,2.76-2.24,5-5,5l0,0C417.609,177.37,415.37,175.13,415.37,172.37z M415.37,162.23c0-2.76,2.239-5,5-5l0,0c2.76,0,5,2.24,5,5
				l0,0c0,2.76-2.24,5-5,5l0,0C417.609,167.23,415.37,164.99,415.37,162.23z M415.37,152.1c0-2.77,2.239-5.01,5-5.01l0,0
				c2.76,0,5,2.24,5,5.01l0,0c0,2.76-2.24,4.99-5,4.99l0,0C417.609,157.09,415.37,154.86,415.37,152.1z M415.37,141.96
				c0-2.76,2.239-5,5-5l0,0c2.76,0,5,2.24,5,5l0,0c0,2.76-2.24,5-5,5l0,0C417.609,146.96,415.37,144.72,415.37,141.96z
				 M415.37,131.82c0-2.76,2.239-5,5-5l0,0c2.76,0,5,2.24,5,5l0,0c0,2.76-2.24,5-5,5l0,0
				C417.609,136.82,415.37,134.58,415.37,131.82z M415.37,121.69c0-2.77,2.239-5.01,5-5.01l0,0c2.76,0,5,2.24,5,5.01l0,0
				c0,2.75-2.24,4.99-5,4.99l0,0C417.609,126.68,415.37,124.44,415.37,121.69z M415.37,111.55c0-2.76,2.239-5,5-5l0,0
				c2.76,0,5,2.24,5,5l0,0c0,2.76-2.24,5-5,5l0,0C417.609,116.55,415.37,114.31,415.37,111.55z M415.37,101.41c0-2.76,2.239-5,5-5
				l0,0c2.76,0,5,2.24,5,5l0,0c0,2.76-2.24,5-5,5l0,0C417.609,106.41,415.37,104.17,415.37,101.41z M415.37,91.28
				c0-2.77,2.239-5.01,5-5.01l0,0c2.76,0,5,2.24,5,5.01l0,0c0,2.75-2.24,4.99-5,4.99l0,0C417.609,96.27,415.37,94.03,415.37,91.28z
				 M415.37,81.14c0-2.76,2.239-5,5-5l0,0c2.76,0,5,2.24,5,5l0,0c0,2.76-2.24,5-5,5l0,0C417.609,86.14,415.37,83.9,415.37,81.14z"/>
		</g>
	</g>
	
		<rect x="197.179" y="-30.548" transform="matrix(-1.836970e-16 1 -1 -1.836970e-16 381.8211 -118.1788)" style="fill:#FAFAFA;" width="105.642" height="324.738"/>
</g>
<g id="Background_Simple" style="display:none;">
	<g style="display:inline;">
		<path style="fill:#407BFF;" d="M406.203,262.586c-2.297,3.097-4.77,6.062-7.41,8.873c-22.726,24.197-60.306,39.902-93.487,31.368
			c-19.763-5.083-33.618-22.418-50.867-33.344c-21.699-13.745-49.215-16.875-74.008-20.766
			c-33.483-5.255-64.679-13.085-85.814-41.206c-17.572-23.38-24.292-55.4-11.658-82.279c12.019-25.569,32.067-48.17,54.196-65.526
			c19.044-14.936,39.445-20.739,61.93-8.382c14.685,8.071,26.041,20.899,37.624,32.998c13.097,13.68,29.841,30.633,49.428,33.596
			c18.689,2.828,38.009-6.385,56.708-6.622c30.887-0.391,60.248,20.148,73.644,47.982
			C432.399,192.338,427.727,233.567,406.203,262.586z"/>
		<path style="opacity:0.9;fill:#FFFFFF;" d="M406.203,262.586c-2.297,3.097-4.77,6.062-7.41,8.873
			c-22.726,24.197-60.306,39.902-93.487,31.368c-19.763-5.083-33.618-22.418-50.867-33.344
			c-21.699-13.745-49.215-16.875-74.008-20.766c-33.483-5.255-64.679-13.085-85.814-41.206c-17.572-23.38-24.292-55.4-11.658-82.279
			c12.019-25.569,32.067-48.17,54.196-65.526c19.044-14.936,39.445-20.739,61.93-8.382c14.685,8.071,26.041,20.899,37.624,32.998
			c13.097,13.68,29.841,30.633,49.428,33.596c18.689,2.828,38.009-6.385,56.708-6.622c30.887-0.391,60.248,20.148,73.644,47.982
			C432.399,192.338,427.727,233.567,406.203,262.586z"/>
	</g>
</g>
<g id="Shadow_1_">
	<ellipse id="_x3C_Path_x3E__114_" style="fill:#F5F5F5;" cx="250" cy="416.238" rx="193.889" ry="11.323"/>
</g>
<g id="Obj_1">
</g>
<g id="Character_1">
	<g>
		<path style="fill:#263238;" d="M193.389,119.652c-7.786,6.422-15.399,16.773-10.935,27.982c4.463,11.208,33.03,12.357,39.01,7.734
			c7.8-6.03,0.906-32.717-5.173-32.873C215.816,112.605,199.902,114.28,193.389,119.652z"/>
		<path style="fill:#FFB573;" d="M182.48,227.805c0,0,3.131,56.932,6.576,87.765c0.356,28.946,6.965,94.349,6.965,94.349l7.305,0
			c1.23-32.448,10.266-62.748,4.262-91.37c14.048-56.2,4.412-90.711,4.412-90.711L182.48,227.805z"/>
		<path style="fill:#FFB573;" d="M190.438,227.838c0,0,15.05,63.148,19.176,90.058c4.333,28.262,10.792,83.104,10.492,92.023h6.317
			c0,0,10.598-55.477,0.788-91.041c8.091-79.964-11.874-91.041-11.874-91.041H190.438z"/>
		<path style="fill:#FFB573;" d="M154.349,154.786c-0.474-3.403-6.731-3.694-6.731-3.694l-3.017-1.513
			c-1.259-0.632-2.626-0.327-3.228,0.719l-0.955,1.659c-0.667,1.158-0.173,2.82,1.113,3.745l0.91,0.656
			c1.545,1.112,3.377,1.757,5.278,1.856l2.769,0.145c0.634,0.033,1.241-0.042,1.799-0.215
			C153.708,157.703,154.568,156.257,154.349,154.786L154.349,154.786z"/>
		<path style="fill:#FFB573;" d="M187.322,174.745c-0.379,0.382-0.585,0.571-0.866,0.83l-0.785,0.692
			c-0.523,0.444-1.059,0.855-1.594,1.262c-1.077,0.801-2.179,1.546-3.308,2.241c-2.264,1.381-4.656,2.524-7.116,3.48
			c-4.914,1.936-10.194,2.905-15.426,2.979l-0.123,0.003l-0.337-0.003c-0.241-0.01-0.478-0.015-0.717-0.059
			c-0.486-0.07-0.942-0.2-1.374-0.374c-0.846-0.351-1.484-0.831-1.98-1.295c-0.942-0.926-1.434-1.79-1.813-2.561
			c-0.733-1.547-1.087-2.9-1.391-4.227c-0.586-2.638-0.803-5.14-0.973-7.627c-0.284-4.975-0.144-9.814,0.301-14.718
			c0.111-1.231,1.2-2.138,2.431-2.027c1.074,0.098,1.902,0.938,2.021,1.969l0.006,0.054c0.542,4.662,1.159,9.392,1.974,13.922
			c0.403,2.259,0.905,4.499,1.533,6.491c0.31,0.982,0.696,1.92,1.061,2.501c0.171,0.289,0.354,0.433,0.278,0.334
			c-0.051-0.066-0.193-0.2-0.484-0.325c-0.151-0.068-0.32-0.117-0.508-0.149c-0.093-0.006-0.179-0.03-0.271-0.029l-0.113,0.002
			l0.102-0.01c2.161-0.19,4.292-0.56,6.382-1.063c2.081-0.541,4.126-1.207,6.102-2.038c1.98-0.824,3.874-1.844,5.688-2.963
			c0.909-0.556,1.792-1.151,2.635-1.775c0.419-0.313,0.828-0.637,1.225-0.957l0.576-0.477l0.446-0.393l0.256-0.226
			c1.862-1.641,4.701-1.461,6.342,0.4C189.071,170.393,188.964,173.08,187.322,174.745z"/>
		<path style="fill:#E0E0E0;" d="M192.24,163.642c-7.913-1.32-16.214,4.058-20.514,8.439c-2.212,6.684,4.892,14.799,4.892,14.799
			s10.13-6.222,13.785-10.47C194.059,172.161,196.798,164.402,192.24,163.642z"/>
		<path style="fill:#263238;" d="M216.743,227.082c0,0,11.16,7.909,13.291,34.25c0.838,10.363,2.348,51.734,5.531,69.536
			c-11.451,8.182-45.732,7.066-51.102,2.277c1.514-35.989-12.241-83.746-2.266-105.701
			C198.69,225.415,216.743,227.082,216.743,227.082z"/>
		<path style="opacity:0.2;" d="M205.416,302.591c0.156-15.133-2.077-35.953-8.85-48.29
			C198.882,269.699,205.416,302.591,205.416,302.591z"/>
		<path style="fill:#E0E0E0;" d="M176.933,175.841c0.01,8.566-6.834,13.072,0.9,19.667c0.454,7.404,1.023,20.652,3.264,32.723
			c2.35,3.27,19.536,3.008,37.381-0.875c-2.325-10.343-1.471-27.202,4.643-50.262c1.418-5.346-2.139-10.849-7.64-11.818
			c-1.47-0.259-3.029-0.5-4.627-0.697c-6.215-0.765-11.309-1.345-16.812-1.256c-1.824,0.03-3.712,0.119-5.517,0.236
			C182.013,163.981,176.926,169.306,176.933,175.841z"/>
		<path style="fill:#407BFF;" d="M220.84,223.553l-20.954,4.746c-0.797,0.18-1.589-0.319-1.769-1.116l-6.785-29.958
			c-0.18-0.797,0.319-1.589,1.116-1.769l20.954-4.746c0.797-0.181,1.589,0.319,1.769,1.116l6.785,29.958
			C222.136,222.581,221.636,223.373,220.84,223.553z"/>
		<path style="fill:#407BFF;" d="M196.068,174.371c0,0-3.386,4.057-6.189,5.021l-0.321,2.014c6.071-0.847,9.233-4.758,9.233-4.758
			L196.068,174.371z"/>
		<path style="fill:#407BFF;" d="M186.863,171.919c0,0-0.148,5.283,1.315,7.86l-1.093,1.722c-3.99-4.654-3.771-9.678-3.771-9.678
			L186.863,171.919z"/>
		<path style="fill:#FFB573;" d="M210.169,145.557c-1.34,5.321-2.912,15.136,0.686,19.022c0,0-13.401,3.662-22.144,15.66
			c-3.955-12.611,5.332-16.915,5.332-16.915c6.106-0.987,6.182-5.466,5.349-9.741L210.169,145.557z"/>
		<path style="opacity:0.2;" d="M205.776,148.832l-6.378,4.746c0.201,1.012,0.344,2.034,0.364,3.018
			c2.322-0.16,5.618-2.449,5.988-4.839C205.933,150.564,205.943,149.406,205.776,148.832z"/>
		<path style="fill:#FFB573;" d="M216.388,136.079c-2.566,8.624-3.47,12.333-8.878,15.72c-8.135,5.096-18.033-0.145-18.063-9.411
			c-0.027-8.341,4.173-21.043,13.44-22.381C212.018,118.688,218.954,127.455,216.388,136.079z"/>
		<path style="fill:#263238;" d="M209.671,123.49c-2.432,8.31-0.35,17.048,4.612,18.04c6.889-2.569,6.544-10.223,4.79-13.723
			C217.319,124.308,211.072,118.703,209.671,123.49z"/>
		<path style="fill:#263238;" d="M213.439,138.415c-3.829,1.279-4.573,3.849-4.573,3.849s2.631-1.863,5.15-1.515
			C213.409,139.538,213.439,138.415,213.439,138.415z"/>
		<path style="fill:#263238;" d="M203.868,135.27c-0.166,0.713-0.68,1.195-1.149,1.076c-0.469-0.119-0.715-0.794-0.549-1.507
			c0.166-0.713,0.68-1.195,1.149-1.076C203.788,133.882,204.034,134.557,203.868,135.27z"/>
		<path style="fill:#263238;" d="M195.017,133.156c-0.166,0.713-0.68,1.195-1.149,1.076c-0.469-0.119-0.715-0.794-0.549-1.507
			c0.166-0.713,0.68-1.195,1.149-1.076C194.937,131.768,195.183,132.443,195.017,133.156z"/>
		<path style="fill:#263238;" d="M194.666,131.741l-1.608-0.931C193.058,130.81,193.631,132.372,194.666,131.741z"/>
		<path style="fill:#ED893E;" d="M196.679,134.318c0,0-1.931,2.761-3.615,3.902c0.743,1.119,2.446,1.126,2.446,1.126
			L196.679,134.318z"/>
		<path style="fill:#FFB573;" d="M216.435,144.73c-1.247,1.418-2.904,2.042-4.29,2.007c-2.085-0.053-2.447-2.455-1.297-4.43
			c1.034-1.777,3.365-3.892,5.184-2.882C217.823,140.421,217.861,143.109,216.435,144.73z"/>
		<path style="fill:#263238;" d="M205.543,132.207c-0.104-0.05-0.188-0.141-0.228-0.259c-0.616-1.841-2.151-2.291-2.169-2.296
			c-0.228-0.066-0.37-0.304-0.31-0.534c0.06-0.23,0.295-0.363,0.527-0.298c0.081,0.023,2.008,0.587,2.772,2.871
			c0.076,0.228-0.046,0.47-0.272,0.541C205.754,132.266,205.64,132.255,205.543,132.207z"/>
		<path style="fill:#263238;" d="M191.778,128.901c-0.107,0.002-0.217-0.036-0.303-0.114c-0.179-0.162-0.196-0.436-0.038-0.611
			c1.581-1.756,3.56-1.446,3.644-1.431c0.236,0.04,0.4,0.263,0.365,0.498c-0.034,0.235-0.253,0.393-0.489,0.354
			c-0.077-0.013-1.614-0.232-2.872,1.165C192.004,128.852,191.892,128.899,191.778,128.901z"/>
		<path style="fill:#263238;" d="M203.517,133.855l-1.608-0.931C201.909,132.924,202.482,134.486,203.517,133.855z"/>
		<path style="fill:#FFB573;" d="M202.952,204.855l-7.916-1.548l0.899,9.189c0,0,5.961-0.259,9.424-3.022l0.32-1.206
			C205.267,206.308,204.819,205.583,202.952,204.855z"/>
		<path style="fill:#FFB573;" d="M190.187,207.234l0.933,3.886c0.279,1.162,1.404,1.914,2.584,1.728l2.232-0.352l-0.899-9.189
			l-3.406,1.24C190.537,204.945,189.915,206.102,190.187,207.234z"/>
		<path style="fill:#FFB573;" d="M220.892,171.981c2.465,4.73,4.526,9.43,6.343,14.398c0.904,2.472,1.75,4.988,2.433,7.596
			c0.683,2.612,1.269,5.292,1.505,8.198c0.061,0.726,0.09,1.475,0.096,2.237l-0.002,0.268l-0.027,0.435
			c-0.02,0.286-0.084,0.582-0.157,0.872c-0.148,0.571-0.4,1.119-0.681,1.554c-0.574,0.893-1.221,1.425-1.779,1.816
			c-1.111,0.736-2.015,1.028-2.843,1.269c-0.829,0.232-1.59,0.374-2.328,0.485c-2.927,0.424-5.574,0.386-8.225,0.307
			c-5.278-0.223-10.366-0.876-15.483-1.854c-1.214-0.232-2.011-1.404-1.779-2.618c0.202-1.059,1.12-1.8,2.156-1.819l0.051-0.001
			c4.992-0.093,10.056-0.222,14.929-0.598c2.419-0.191,4.861-0.468,6.932-0.956c0.508-0.124,0.986-0.267,1.367-0.419
			c0.38-0.141,0.665-0.333,0.6-0.32c-0.045,0.02-0.217,0.114-0.456,0.468c-0.11,0.169-0.234,0.42-0.306,0.685
			c-0.042,0.134-0.056,0.278-0.078,0.404c-0.008,0.065-0.013,0.131-0.013,0.197l0.002,0.079l-0.004-0.048
			c-0.04-0.507-0.091-1.024-0.171-1.56c-0.659-4.323-2.309-8.987-4.067-13.507c-1.813-4.512-3.889-9.097-6.003-13.425l-0.043-0.089
			c-1.09-2.233-0.164-4.927,2.069-6.018C217.123,168.946,219.768,169.829,220.892,171.981z"/>
		<path style="fill:#E0E0E0;" d="M216.04,165.593c5.731,1.06,8.284,6.204,12.435,16.482c-1.309,6.918-11.457,10.567-11.457,10.567
			s-5.839-10.355-6.975-15.843C208.908,171.311,210.22,164.516,216.04,165.593z"/>
		<path style="fill:#263238;" d="M203.892,409.968c-0.046-0.235-0.319-0.405-0.657-0.409l-6.789-0.1
			c-0.714-0.008-1.519,0.072-2.046,0.435c-2.011,1.384-5.651,2.967-10.219,3.649c-1.444,0.216-0.789,2.65,2.607,2.688
			c5.616,0.062,6.633-0.363,11.421-0.309c4.095,0.046,2.142,0.233,5.396,0.309c0.779,0.018,1.418-0.488,1.312-1.03L203.892,409.968z
			"/>
		<path style="fill:#263238;" d="M227.282,409.968c-0.051-0.235-0.328-0.405-0.666-0.409l-5.526-0.1
			c-0.714-0.008-1.518,0.072-2.037,0.435c-1.982,1.384-1.726,2.967-6.28,3.649c-1.439,0.216-0.733,2.65,2.664,2.688
			c5.617,0.062,5.274-0.309,7.553-0.309c2.292,0,0.883,0.233,4.138,0.309c0.78,0.018,1.408-0.488,1.29-1.03L227.282,409.968z"/>
		<path style="fill:#FAFAFA;" d="M192.38,175.909c2.842,0.126,8.052,2.447,9.716,4.942c2.365-2.452,11.58-8.144,11.745-15.851
			c-2.068-1.883-4.087-2.103-4.087-2.103S197.454,168.854,192.38,175.909z"/>
		<path style="fill:#FAFAFA;" d="M187.775,175.514c0,0-0.764-6.23,6.771-12.283c-0.755-0.624-3.733,0.083-3.733,0.083
			s-8.816,3.788-8.553,13.597C184.997,174.94,187.775,175.514,187.775,175.514z"/>
		<path style="fill:#407BFF;" d="M186.661,178.148c-1.092,0.508-1.519,4.058,0,4.891c1.519,0.834,1.372-2.557,2.254-3.724
			C189.797,178.148,188.572,177.259,186.661,178.148z"/>
		<path style="fill:#407BFF;" d="M187.967,179.535c-0.779,1.005,0.228,4.4,1.916,4.382c1.687-0.018,0.228-2.982,0.561-4.472
			C190.776,177.954,189.331,177.775,187.967,179.535z"/>
		<path style="fill:#407BFF;" d="M188.231,182.059c-1.87-2.885-2.022,12.342,2.524,18.34
			C190.456,194.489,193.626,186.106,188.231,182.059z"/>
		<path style="fill:#407BFF;" d="M188.06,181.931c-0.828-2.941-4.966,9.943-2.686,16.232
			C186.676,193.068,191.574,186.787,188.06,181.931z"/>
		<path style="fill:#263238;" d="M201.992,142.1c0.41-0.179,0.827-0.403,1.247-0.683c0.113-0.076,0.135-0.227,0.05-0.338
			c-0.085-0.11-0.243-0.14-0.36-0.063c-3.059,2.046-6.111,0.907-6.142,0.896c-0.134-0.052-0.281,0.007-0.329,0.13
			c-0.048,0.124,0.021,0.266,0.154,0.318C196.73,142.404,199.187,143.323,201.992,142.1z"/>
		<rect x="121.889" y="149.147" style="fill:#407BFF;" width="51.091" height="1.661"/>
		<g>
			<polygon style="fill:#407BFF;" points="171.761,150.808 123.108,150.808 125.25,151.968 169.62,151.968 			"/>
			<polygon style="opacity:0.2;" points="171.761,150.808 123.108,150.808 125.25,151.968 169.62,151.968 			"/>
		</g>
		<g>
			<path style="fill:#263238;" d="M138.258,104.684L138.258,104.684c-0.622,0-1.131-0.509-1.131-1.131v-3.795
				c0-0.622,0.509-1.131,1.131-1.131l0,0c0.622,0,1.131,0.509,1.131,1.131v3.795C139.389,104.175,138.88,104.684,138.258,104.684z"
				/>
			<path style="fill:#263238;" d="M136.437,99.534v-0.508c0-0.482,0.395-0.877,0.877-0.877h1.888c0.482,0,0.877,0.395,0.877,0.877
				v0.508c0,0.482-0.395,0.877-0.877,0.877h-1.888C136.831,100.411,136.437,100.016,136.437,99.534z"/>
			<path style="fill:#407BFF;" d="M140.068,112.908v-10.811c0-0.244-0.198-0.442-0.442-0.442h-2.736
				c-0.244,0-0.442,0.198-0.442,0.442v10.811c0,1.644-0.701,3.211-1.927,4.307l0,0c-1.226,1.096-1.927,2.662-1.927,4.307v27.73
				h11.326v-27.731c0-1.644-0.701-3.211-1.927-4.306l0,0C140.768,116.118,140.068,114.552,140.068,112.908z"/>
			<rect x="136.437" y="124.804" style="fill:#E0E0E0;" width="7.484" height="17.929"/>
		</g>
		<g>
			<path style="fill:#407BFF;" d="M154.539,149.147h-1.353C153.186,149.147,153.794,149.199,154.539,149.147z"/>
			<path style="fill:#407BFF;" d="M162.687,149.147h-1.353C162.079,149.199,162.687,149.147,162.687,149.147z"/>
			<path style="opacity:0.2;fill:#407BFF;" d="M152.733,127.978v4.554c0,3.623,2.057,6.628,4.672,6.991c0,2.34,0,6.538,0,7.963
				c0,1.237-1.203,1.58-2.132,1.661h2.664h2.664c-0.929-0.082-2.132-0.425-2.132-1.661c0-1.425,0-5.623,0-7.963
				c2.614-0.363,4.671-3.368,4.671-6.991v-4.554H152.733z"/>
		</g>
		<path style="fill:#263238;" d="M214.692,123.724c-3.97,1.693-17.398,2.219-22.652,1.08
			C197.469,117.127,209.671,114.88,214.692,123.724z"/>
		<path style="fill:#263238;" d="M227.303,151.122c-0.078,0-0.156-0.037-0.204-0.106c-0.126-0.179-3.082-4.518-3.141-16.139
			c-0.024-4.843-1.487-8.75-4.013-10.719c-1.435-1.119-3.076-1.491-4.741-1.081c-0.133,0.034-0.27-0.049-0.303-0.183
			c-0.032-0.134,0.049-0.27,0.184-0.303c1.799-0.442,3.631-0.026,5.167,1.172c2.648,2.064,4.181,6.114,4.206,11.111
			c0.058,11.437,3.02,15.812,3.05,15.855c0.079,0.113,0.051,0.269-0.061,0.348C227.402,151.107,227.352,151.122,227.303,151.122z"/>
	</g>
</g>
<g id="Character_2">
	<g>
		<path style="fill:#263238;" d="M299.262,92.247c2.787,3.819,2.782,9.777,1.823,13.027c-4.985-2.276-4.216-8.792-4.216-8.792
			L299.262,92.247z"/>
		<path style="fill:#E0E0E0;" d="M314.207,139.526l2.882,3.17l2.983,3.22c1.992,2.136,4.029,4.212,6.055,6.21
			c1.016,0.998,2.042,1.963,3.072,2.878c1.016,0.934,2.039,1.827,3.049,2.629c1.005,0.812,2.02,1.531,2.935,2.152
			c0.902,0.603,1.769,1.049,2.202,1.247l-1.539-0.24c-0.892-0.013-1.301,0.253-1.293,0.281c-0.018,0.053,0.24-0.021,0.575-0.198
			c0.69-0.363,1.643-1.105,2.571-1.959c1.881-1.751,3.864-3.927,5.736-6.229c1.908-2.293,3.767-4.728,5.62-7.199
			c1.852-2.456,3.697-5.038,5.515-7.485l0.088-0.119c1.485-1.999,4.309-2.415,6.308-0.93c1.58,1.174,2.167,3.191,1.612,4.969
			c-1.017,3.242-2.198,6.251-3.504,9.312c-1.311,3.04-2.765,6.035-4.403,9.015c-1.685,2.961-3.468,5.929-5.877,8.872
			c-1.229,1.475-2.562,2.965-4.442,4.476c-0.95,0.754-2.056,1.516-3.534,2.196c-1.444,0.665-3.439,1.304-5.922,1.222
			c-0.386-0.013-0.763-0.062-1.126-0.143l-0.414-0.097c-2.559-0.592-4.517-1.457-6.317-2.343c-1.781-0.889-3.344-1.882-4.845-2.874
			c-2.991-1.99-5.632-4.113-8.139-6.315c-2.525-2.182-4.859-4.477-7.132-6.81c-1.123-1.18-2.243-2.355-3.316-3.577
			c-1.102-1.231-2.098-2.41-3.222-3.803c-3.12-3.869-2.514-9.535,1.355-12.655c3.723-3.003,9.11-2.555,12.292,0.931L314.207,139.526
			z"/>
		<path style="fill:#FF8B7B;" d="M359.069,143.363l8.907,0.424l-2.887-11.979c0,0-8.29,0.609-9.621,4.877
			c-0.146,0.468-0.103,0.978,0.086,1.43l1.638,3.931C357.51,142.811,358.241,143.323,359.069,143.363z"/>
		<path style="fill:#FF8B7B;" d="M375.927,136.669l-1.72-4.027c-0.685-1.603-2.43-2.475-4.123-2.06l-4.996,1.226l2.887,11.979
			l6.006-2.416C375.833,140.625,376.711,138.504,375.927,136.669z"/>
		<path style="fill:#263238;" d="M293.141,309.538c-9.465-41.61-15.307-91.777-15.307-91.777l38.786-0.626
			c0,0-0.544,67.616-0.454,95.938c0.097,29.448,2.138,94.255,2.138,94.255h-11.772C306.531,407.329,291.339,345.944,293.141,309.538
			z"/>
		<path d="M290.117,252.131l-6.133,9.097c1.824,11.359,4.024,23.869,6.53,36.134C291.574,278.517,291.391,256.634,290.117,252.131z"
			/>
		<path style="fill:#263238;" d="M334.02,413.097c0,0-16.21-3.821-17.434-6.383l-9.027,0l0.061,9.525h5.557l0.855-0.877l1.409,0.877
			c4.502,0,16.46-0.174,19.287-1.191C334.814,413.606,334.02,413.097,334.02,413.097z"/>
		<path style="fill:#263238;" d="M257.055,308.365c4.499-41.842,4.353-69.803,9.824-90.427l35.319-0.531
			c0,0-14.705,66.383-21.537,94.025c-6.859,27.749-18.522,95.896-18.522,95.896h-10.903
			C251.237,407.329,247.807,340.735,257.055,308.365z"/>
		<path style="fill:#E0E0E0;" d="M264.08,226.091c-0.778,5.02-3.555,34.576-6.444,45.353c23.556,10.444,59.556,6.333,60.668-0.444
			c-0.335-12.556-1.001-44.909-1.001-44.909H264.08z"/>
		<path style="opacity:0.1;" d="M265.385,231.583c1.833,3.417,5.917,7.25,5.917,7.25S266.219,237.917,265.385,231.583z"/>
		<path style="opacity:0.1;" d="M312.728,238.55c1.679-2.104,3.264-6.47,3.264-6.47S316.22,237.186,312.728,238.55z"/>
		<path style="opacity:0.1;" d="M265.61,235.353c0.519,2.513,2.387,5.715,2.387,5.715S264.945,239.529,265.61,235.353z"/>
		<path style="fill:#263238;" d="M272.3,413.097c0,0-10.112-3.821-11.27-6.383l-9.027,0l-0.185,9.525h7.368l0.877-0.877l1.386,0.877
			c4.502,0,8.654-0.174,11.507-1.191C273.081,413.606,272.3,413.097,272.3,413.097z"/>
		<path style="fill:#263238;" d="M265.584,134.453c12.472-1.548,30.298-1.406,42.247,0.657c6.084,1.05,10.888,6.08,11.738,12.174
			c2.515,18.043,0.353,49.588-1.253,81.337c-27.292,9.339-56.094-0.126-56.094-0.126c-0.993-6.408,1.242-27.393,2.743-38.599
			c-2.252-11.569-7.03-24.816-10.186-40.18C253.246,142.255,258.154,135.375,265.584,134.453z"/>
		<path style="opacity:0.1;fill:#FFFFFF;" d="M265.584,134.453c12.472-1.548,30.298-1.406,42.247,0.657
			c6.084,1.05,10.888,6.08,11.738,12.174c2.515,18.043,0.353,49.588-1.253,81.337c-27.292,9.339-56.094-0.126-56.094-0.126
			c-0.993-6.408,1.242-27.393,2.743-38.599c-2.252-11.569-7.03-24.816-10.186-40.18
			C253.246,142.255,258.154,135.375,265.584,134.453z"/>
		<g>
			<path style="fill:#FF8B7B;" d="M277.928,110.62l14.203,11.649c-1.838,4.887-2.421,9.977,5.601,11.935
				c2.008,2.65-0.967,7.294-4.564,9.11c-8.419-1.927-13.272-4.184-16.537-8.671C277.66,131.122,279.304,117.85,277.928,110.62z"/>
			<path style="opacity:0.2;" d="M283.85,115.48l8.275,6.783c-0.445,1.171-0.81,2.353-0.995,3.501
				c-3.208,0.229-7.668-3.019-7.872-5.945C283.155,118.339,283.534,116.168,283.85,115.48z"/>
		</g>
		<path style="fill:#FF8B7B;" d="M275.89,102.675c1.295,8.91,1.6,14.195,6.51,18.377c7.386,6.291,18.111,1.168,19.507-7.973
			c1.257-8.228-1.072-21.416-10.144-24.174C282.825,86.188,274.595,93.766,275.89,102.675z"/>
		<path style="fill:#263238;" d="M275.809,106.794c0,0,2.888,3.371,7.371,1.888c-2.138-2.17-0.059-10.113-2.203-13.343
			c4.147,0.816,20.26,3.159,21.804-2.432c1.669-6.049-5.02-10.791-8.735-11.241c1.097,2.504,0.988,4.312-3.102,3.499
			c-4.09-0.813-20.985-4.707-19.13,3.217c-5.444,0.013-5.814,7.921-1.837,11.711C273.951,103.884,275.809,106.794,275.809,106.794z"
			/>
		<path style="fill:#263238;" d="M272.806,87.969c-3.257-0.807-2.238-3.807-1.502-4.118c-3.056,0.736-4.16,3.735-0.481,5.122
			C274.502,90.36,272.806,87.969,272.806,87.969z"/>
		<path style="fill:#FF8B7B;" d="M273.375,108.155c0.638,2.118,2.201,3.739,3.826,4.566c2.444,1.245,4.228-0.806,4.02-3.391
			c-0.187-2.327-1.685-5.778-4.364-5.95C274.217,103.21,272.646,105.733,273.375,108.155z"/>
		<path style="fill:#263238;" d="M288.399,103.005c0.061,0.73,0.497,1.285,0.974,1.242c0.477-0.044,0.815-0.671,0.754-1.401
			c-0.061-0.73-0.497-1.285-0.974-1.241C288.676,101.648,288.338,102.275,288.399,103.005z"/>
		<path style="fill:#263238;" d="M297.123,102.792c0.061,0.73,0.497,1.285,0.974,1.241c0.477-0.044,0.815-0.671,0.754-1.401
			c-0.061-0.73-0.497-1.285-0.974-1.242C297.4,101.435,297.063,102.062,297.123,102.792z"/>
		<path style="fill:#FF5652;" d="M295.354,103.772c0,0,2.01,4.056,4.006,5.919c-1.191,1.324-3.433,0.975-3.433,0.975
			L295.354,103.772z"/>
		<path style="fill:#263238;" d="M287.051,100.677c-0.071,0.01-0.145,0.002-0.216-0.026c-0.22-0.087-0.326-0.337-0.238-0.559
			c0.889-2.218,2.83-2.641,2.912-2.658c0.233-0.048,0.458,0.102,0.504,0.335c0.046,0.233-0.105,0.46-0.336,0.508l0,0
			c-0.064,0.014-1.574,0.359-2.283,2.13C287.334,100.558,287.2,100.656,287.051,100.677z"/>
		<path style="fill:#263238;" d="M302.175,99.523c-0.139-0.005-0.273-0.076-0.351-0.204c-0.985-1.614-2.533-1.686-2.598-1.688
			c-0.237-0.008-0.422-0.206-0.413-0.442c0.009-0.237,0.206-0.423,0.443-0.417c0.086,0.004,2.07,0.073,3.304,2.095
			c0.123,0.202,0.058,0.467-0.145,0.592C302.341,99.506,302.257,99.526,302.175,99.523z"/>
		<path style="fill:#E0E0E0;" d="M276.63,134.643c0,0,14.572,22.14,20.11,37.761c5.458-18.337,6.087-33.048,0.992-38.2
			C296.097,136.267,289.496,139.068,276.63,134.643z"/>
		<path style="fill:#E0E0E0;" d="M271.665,151.023l-1.412,4.045l-1.407,4.158c-0.927,2.77-1.78,5.551-2.569,8.284
			c-0.393,1.369-0.751,2.732-1.064,4.073c-0.336,1.338-0.633,2.664-0.856,3.935c-0.234,1.271-0.381,2.505-0.491,3.606
			c-0.1,1.081-0.079,2.055-0.045,2.53l-0.524-1.467c-0.414-0.79-0.843-1.023-0.863-1.002c-0.056,0.01,0.133,0.2,0.448,0.411
			c0.649,0.433,1.755,0.916,2.948,1.325c2.436,0.817,5.294,1.523,8.211,2.069c2.926,0.583,5.953,1.056,9.008,1.505
			c3.042,0.456,6.191,0.846,9.209,1.276l0.147,0.021c2.465,0.352,4.178,2.635,3.826,5.1c-0.278,1.948-1.771,3.427-3.598,3.788
			c-3.334,0.651-6.543,1.05-9.855,1.362c-3.297,0.298-6.623,0.449-10.024,0.431c-3.406-0.068-6.865-0.219-10.601-0.933
			c-1.882-0.376-3.828-0.836-6.053-1.768c-1.116-0.476-2.313-1.083-3.616-2.059c-1.273-0.952-2.786-2.401-3.899-4.622
			c-0.173-0.345-0.31-0.7-0.411-1.058l-0.112-0.409c-0.7-2.531-0.874-4.665-0.954-6.67c-0.068-1.989,0.059-3.836,0.215-5.629
			c0.321-3.578,0.927-6.912,1.666-10.165c0.713-3.26,1.617-6.406,2.583-9.517c0.501-1.549,0.999-3.095,1.562-4.621
			c0.556-1.556,1.117-2.994,1.805-4.646c1.911-4.588,7.18-6.758,11.769-4.846c4.415,1.839,6.591,6.788,5.045,11.247L271.665,151.023
			z"/>
		<path style="fill:#FF8B7B;" d="M293.625,187.073l8.849,1.1l-4.885,11.312c0,0-8.066-2.012-8.649-6.445
			c-0.064-0.486,0.065-0.981,0.328-1.395l2.284-3.594C291.996,187.351,292.803,186.971,293.625,187.073z"/>
		<path style="fill:#FF8B7B;" d="M309.097,196.541l-2.381,3.676c-0.948,1.463-2.816,2.025-4.413,1.327l-4.714-2.059l4.885-11.312
			l5.507,3.404C309.679,192.626,310.182,194.866,309.097,196.541z"/>
		<path style="fill:#FAFAFA;" d="M277.339,131.203c-3.375,0.691-4.828,2.597-4.828,2.597s5.496,8.155,15.966,10.701
			c-0.453-1.528,0.924-6.025,2.443-7.597C285.364,136.069,277.339,131.203,277.339,131.203z"/>
		<path style="fill:#FAFAFA;" d="M292.702,131.745c3.375,0.691,5.287,2.178,5.287,2.178s5.599,6.249-0.98,9.773
			c0.453-1.528-3.014-5.603-6.089-6.79C296.476,136.069,292.702,131.745,292.702,131.745z"/>
		<path style="fill:#407BFF;" d="M291.523,140.456c-4.423-2.366-9.896-4.937-8.37-0.782c1.526,4.155-0.493,5.582,1.488,7.004
			c1.981,1.422,5.963-2.458,7.324-2.997C293.327,143.142,291.523,140.456,291.523,140.456z"/>
		<path style="fill:#407BFF;" d="M294.646,140.427c3.375-2.269,7.594-4.726,6.847-0.679c-0.747,4.048,1.107,5.464-0.36,6.834
			c-1.466,1.37-5.255-2.465-6.452-3.006C293.485,143.035,294.646,140.427,294.646,140.427z"/>
		<path style="fill:#407BFF;" d="M290.92,140.136c0.995-0.601,3.439-1.36,4.645,0.269c1.206,1.629,0.821,4.363-0.849,4.69
			c-2.086,0.409-3.253-1.15-3.253-1.15S292.854,141.734,290.92,140.136z"/>
		<polygon points="262.754,407.633 250.615,407.973 249.977,401.096 264.07,401.945 		"/>
		<polygon points="318.73,407.606 305.627,407.973 304.175,402.025 318.813,400.601 		"/>
		<path style="fill:#FFFFFF;" d="M290.175,184.742c-8.702-2.547-17.466-3.34-18.819-3.255c-1.353,0.085-1.873,30.817-1.769,43.381
			c0,1.698,19.564,1.358,24.559,0.594c0.281-3.514,0.343-29.133,1.642-37.142c0.21-1.293-0.493-2.549-1.701-3.057
			C292.107,184.43,290.175,184.742,290.175,184.742z"/>
		<g>
			<rect x="337.052" y="135.552" style="fill:#407BFF;" width="55.521" height="1.58"/>
			<g>
				<polygon style="fill:#407BFF;" points="391.413,137.132 338.212,137.132 340.25,138.236 389.376,138.236 				"/>
				<polygon style="opacity:0.2;" points="391.413,137.132 338.212,137.132 340.25,138.236 389.376,138.236 				"/>
			</g>
			<path style="fill:#407BFF;" d="M367.1,113.235c0,1.263-1.024,2.288-2.288,2.288s-2.288-1.024-2.288-2.288
				c0-1.263,1.024-2.288,2.288-2.288S367.1,111.971,367.1,113.235z"/>
			<path style="fill:#407BFF;" d="M388.815,128.224c-1.541-4.778-4.453-8.957-8.421-12.086l0.619-0.785
				c4.124,3.251,7.151,7.596,8.753,12.563L388.815,128.224z"/>
			<path style="fill:#407BFF;" d="M376.919,113.837c-1.118-0.615-2.292-1.148-3.488-1.585l0.344-0.939
				c1.243,0.454,2.464,1.009,3.627,1.648L376.919,113.837z"/>
			<path style="fill:#407BFF;" d="M364.813,113.235c-12.542,0-22.709,10.167-22.709,22.709h45.419
				C387.522,123.401,377.355,113.235,364.813,113.235z"/>
			<path style="opacity:0.3;fill:#FFFFFF;" d="M345.226,133.906h5.874c0.419,0,0.769-0.302,0.848-0.714
				c1.186-6.221,4.895-11.639,10.794-16.358c0.622-0.497,0.202-1.495-0.588-1.393c-9.157,1.18-16.457,8.377-17.794,17.485
				C344.284,133.445,344.703,133.906,345.226,133.906z"/>
		</g>
		<path style="fill:#263238;" d="M292.562,113.293c0.44,0.016,0.905-0.005,1.396-0.074c0.132-0.019,0.217-0.143,0.188-0.278
			c-0.029-0.134-0.156-0.228-0.292-0.21c-3.584,0.509-5.803-1.802-5.825-1.825c-0.096-0.103-0.252-0.114-0.347-0.025
			c-0.096,0.089-0.095,0.245,0.001,0.347C287.768,111.319,289.554,113.181,292.562,113.293z"/>
	</g>
</g>
</svg>
